<svg id="icons" xmlns="http://www.w3.org/2000/svg" viewBox="0 0 340 340"><path d="M10.3,134.105H165.155a0,0,0,0,1,0,0V315.693a14.116,14.116,0,0,1-14.116,14.116H24.417A14.116,14.116,0,0,1,10.3,315.693V134.105A0,0,0,0,1,10.3,134.105Z" style="fill:#9dddf4"/><path d="M24.417,13.343H151.039a14.116,14.116,0,0,1,14.116,14.116V134.105a0,0,0,0,1,0,0H10.3a0,0,0,0,1,0,0V27.459A14.116,14.116,0,0,1,24.417,13.343Z" style="fill:#9dddf4"/><path d="M36.417,50.3h8.3a0,0,0,0,1,0,0V97.642a0,0,0,0,1,0,0h-8.3a7.808,7.808,0,0,1-7.808-7.808V58.111A7.808,7.808,0,0,1,36.417,50.3Z" style="fill:#3796b7"/><path d="M36.417,164.5h8.3a0,0,0,0,1,0,0V215.84a0,0,0,0,1,0,0h-8.3a7.808,7.808,0,0,1-7.808-7.808V172.31A7.808,7.808,0,0,1,36.417,164.5Z" style="fill:#3796b7"/><rect x="186.49" y="169.809" width="134.915" height="160" rx="11.297" style="fill:#b6dffc"/><circle cx="253.947" cy="255.428" r="47.248" style="fill:#7babdb"/><circle cx="253.947" cy="255.428" r="31.886" style="fill:#537bb7"/><path d="M219,169.809v7.933a10.429,10.429,0,0,0,10.429,10.429h49.039A10.429,10.429,0,0,0,288.9,177.742v-7.933Z" style="fill:#7babdb"/><path d="M267.478,10.182c-18.821,17.869-62.221,9.755-62.221,9.755V83.253a59.532,59.532,0,0,0,4.027,21.915c15.634,39.51,58.194,47.427,58.194,47.427s42.56-7.917,58.194-47.427A59.532,59.532,0,0,0,329.7,83.253V19.937S286.3,28.051,267.478,10.182Z" style="fill:#ffdc6c"/><path d="M267.478,10.182a34.638,34.638,0,0,1-10.378,6.61L205.257,68.634V83.253a61.127,61.127,0,0,0,2.283,16.759L287.7,19.856C280.02,18.183,272.775,15.212,267.478,10.182Z" style="fill:#ffedd2"/><path d="M214.814,116.252a71.955,71.955,0,0,0,7.649,10.308L323.705,25.666V20.8c-3.35.4-7.874.8-12.988.932Z" style="fill:#ffedd2"/><path d="M325.672,105.168A59.532,59.532,0,0,0,329.7,83.253V19.937s-43.4,8.114-62.221-9.755V152.6S310.038,144.678,325.672,105.168Z" style="fill:#fca742"/><path d="M205.257,53.874,237.834,21.3c-2.568.247-5.115.386-7.589.444L205.257,46.729Z" style="fill:#ffedd2"/><path d="M24.417,333.809H151.039a18.137,18.137,0,0,0,18.116-18.116V27.459A18.137,18.137,0,0,0,151.039,9.342H24.417A18.137,18.137,0,0,0,6.3,27.459V134.1a4,4,0,0,0,4,4H161.155V315.693a10.127,10.127,0,0,1-10.116,10.116H24.417A10.127,10.127,0,0,1,14.3,315.693V151.257a4,4,0,0,0-8,0V315.693A18.137,18.137,0,0,0,24.417,333.809ZM14.3,130.1V27.459A10.128,10.128,0,0,1,24.417,17.342H151.039a10.128,10.128,0,0,1,10.116,10.117V130.1Z" style="fill:#494456"/><path d="M44.713,46.3h-8.3A11.822,11.822,0,0,0,24.608,58.111V89.833a11.823,11.823,0,0,0,11.809,11.809h8.3a4,4,0,0,0,4-4V50.3A4,4,0,0,0,44.713,46.3Zm-4,47.339h-4.3a3.814,3.814,0,0,1-3.809-3.809V58.111A3.813,3.813,0,0,1,36.417,54.3h4.3Z" style="fill:#494456"/><path d="M44.713,219.84a4,4,0,0,0,4-4V164.5a4,4,0,0,0-4-4h-8.3A11.822,11.822,0,0,0,24.608,172.31v35.722A11.822,11.822,0,0,0,36.417,219.84ZM32.608,208.032V172.31a3.813,3.813,0,0,1,3.809-3.808h4.3V211.84h-4.3A3.813,3.813,0,0,1,32.608,208.032Z" style="fill:#494456"/><path d="M310.108,333.809a15.315,15.315,0,0,0,15.3-15.3V181.106a15.315,15.315,0,0,0-15.3-15.3H197.787a15.314,15.314,0,0,0-15.3,15.3V318.512a15.314,15.314,0,0,0,15.3,15.3Zm-25.212-160v3.933a6.437,6.437,0,0,1-6.43,6.429H229.428A6.436,6.436,0,0,1,223,177.742v-3.933Zm-94.406,144.7V181.106a7.305,7.305,0,0,1,7.3-7.3H215v3.933a14.445,14.445,0,0,0,14.429,14.429h49.038a14.446,14.446,0,0,0,14.43-14.429v-3.933h17.212a7.306,7.306,0,0,1,7.3,7.3V318.512a7.305,7.305,0,0,1-7.3,7.3H197.787A7.3,7.3,0,0,1,190.49,318.512Z" style="fill:#494456"/><path d="M253.947,306.676A51.248,51.248,0,1,0,202.7,255.428,51.306,51.306,0,0,0,253.947,306.676Zm0-94.495A43.248,43.248,0,1,1,210.7,255.428,43.3,43.3,0,0,1,253.947,212.181Z" style="fill:#494456"/><path d="M253.947,291.315a35.916,35.916,0,0,0,34.786-44.737,4,4,0,1,0-7.754,1.968,27.857,27.857,0,1,1-19.295-19.917,4,4,0,0,0,2.215-7.688,35.89,35.89,0,1,0-9.952,70.374Z" style="fill:#494456"/><path d="M274.542,236.627a4,4,0,1,0,5.9-5.4q-.613-.672-1.261-1.312a4,4,0,0,0-5.621,5.694Q274.065,236.1,274.542,236.627Z" style="fill:#494456"/><path d="M205.255,315.718h16.806a4,4,0,0,0,0-8H205.255a4,4,0,1,0,0,8Z" style="fill:#494456"/><path d="M205.255,303.461H208.9a4,4,0,0,0,0-8h-3.649a4,4,0,0,0,0,8Z" style="fill:#494456"/><path d="M333.7,19.937a4,4,0,0,0-4.734-3.932c-.413.077-41.625,7.52-58.733-8.724-.076-.071-.162-.122-.241-.187-.1-.085-.207-.172-.317-.245a3.76,3.76,0,0,0-.35-.2c-.113-.059-.224-.121-.341-.169s-.255-.086-.384-.124-.234-.072-.354-.1-.264-.036-.4-.049-.243-.025-.365-.025-.263.014-.394.027-.247.022-.369.045-.254.065-.381.1-.241.069-.359.116a4.007,4.007,0,0,0-.36.178,3.785,3.785,0,0,0-.334.187,4.016,4.016,0,0,0-.324.251c-.078.063-.163.113-.237.183-17.109,16.245-58.319,8.8-58.733,8.724a4,4,0,0,0-4.734,3.932V83.253a63.278,63.278,0,0,0,4.308,23.387c16.26,41.093,59.355,49.548,61.182,49.887h.009a3.968,3.968,0,0,0,.717.067h.01a3.957,3.957,0,0,0,.716-.067h.01c1.827-.339,44.922-8.794,61.182-49.887A63.257,63.257,0,0,0,333.7,83.253Zm-8,63.316a55.314,55.314,0,0,1-3.747,20.444C308.438,137.85,273,147.235,267.473,148.5c-5.542-1.26-40.916-10.556-54.469-44.807a55.314,55.314,0,0,1-3.747-20.444V24.6c11.54,1.518,41.151,3.823,58.221-9.19C284.548,28.42,314.16,26.116,325.7,24.6Z" style="fill:#494456"/><circle cx="305.281" cy="184.719" r="4" style="fill:#494456"/><circle cx="305.281" cy="199.889" r="4" style="fill:#494456"/></svg>