<?xml version="1.0" encoding="iso-8859-1"?>
<!-- Generator: Adobe Illustrator 19.0.0, SVG Export Plug-In . SVG Version: 6.00 Build 0)  -->
<svg xmlns="http://www.w3.org/2000/svg" xmlns:xlink="http://www.w3.org/1999/xlink" version="1.1" id="Layer_1" x="0px" y="0px" viewBox="0 0 512.001 512.001" style="enable-background:new 0 0 512.001 512.001;" xml:space="preserve">
<g>
	<rect x="356.177" y="306.257" style="fill:#BDB5A5;" width="28.328" height="77.504"/>
	<rect x="433.555" y="306.257" style="fill:#BDB5A5;" width="28.328" height="77.504"/>
	<rect x="127.488" y="306.257" style="fill:#BDB5A5;" width="28.328" height="77.504"/>
	<rect x="50.124" y="306.257" style="fill:#BDB5A5;" width="28.328" height="77.504"/>
	<rect x="240.268" y="215.382" style="fill:#BDB5A5;" width="31.47" height="148.266"/>
</g>
<path style="opacity:0.1;enable-background:new    ;" d="M240.266,280.397c4.963,1.598,10.246,2.473,15.735,2.473  s10.772-0.874,15.735-2.473v-65.016h-31.47L240.266,280.397L240.266,280.397z"/>
<path style="fill:#FF6B58;" d="M394.822,231.429c0,10.952-8.879,19.831-19.831,19.831c-10.952,0-19.831-8.879-19.831-19.831  c0,10.952-8.879,19.831-19.831,19.831c-10.952,0-19.831-8.879-19.831-19.831c0,10.952-8.879,19.831-19.831,19.831  s-19.831-8.879-19.831-19.831c0,10.952-8.879,19.831-19.831,19.831c-10.952,0-19.831-8.879-19.831-19.831  c0,10.952-8.879,19.831-19.831,19.831c-10.952,0-19.831-8.879-19.831-19.831c0,10.952-8.879,19.831-19.831,19.831  c-10.952,0-19.831-8.879-19.831-19.831c0,10.952-8.879,19.831-19.831,19.831s-19.831-8.879-19.831-19.831v-34.956h277.642v34.956  H394.822z"/>
<path style="fill:#DEDAD2;" d="M289.302,347.95h-66.605c-19.779,0-35.813,16.034-35.813,35.813l0,0h138.23l0,0  C325.115,363.984,309.081,347.95,289.302,347.95z"/>
<rect x="127.488" y="306.257" style="opacity:0.1;enable-background:new    ;" width="28.328" height="45.79"/>
<rect x="50.124" y="306.257" style="opacity:0.1;enable-background:new    ;" width="28.328" height="45.79"/>
<rect x="356.177" y="306.257" style="opacity:0.1;enable-background:new    ;" width="28.328" height="45.79"/>
<rect x="433.555" y="306.257" style="opacity:0.1;enable-background:new    ;" width="28.328" height="45.79"/>
<g>
	<polygon style="fill:#FF6B58;" points="82.65,279.987 166.357,279.987 166.357,320.436 50.124,320.436 7.902,128.239    49.315,128.239  "/>
	<polygon style="fill:#FF6B58;" points="429.35,279.987 345.643,279.987 345.643,320.436 461.877,320.436 504.098,128.239    462.685,128.239  "/>
</g>
<path d="M316.21,204.375c4.365,0,7.902-3.538,7.902-7.902c0-4.364-3.537-7.902-7.902-7.902H117.18c-4.365,0-7.902,3.538-7.902,7.902  v34.956c0,15.292,12.442,27.733,27.733,27.733c7.764,0,14.793-3.206,19.831-8.365c5.038,5.159,12.067,8.365,19.831,8.365  c7.764,0,14.793-3.206,19.831-8.365c5.038,5.159,12.067,8.365,19.831,8.365c5.968,0,11.496-1.9,16.026-5.118v86.003h-9.665  c-24.105,0-43.715,19.61-43.715,43.715c0,4.364,3.537,7.902,7.902,7.902h138.23c4.365,0,7.902-3.538,7.902-7.902  c0-24.105-19.61-43.715-43.715-43.715h-9.666v-86.004c4.53,3.22,10.059,5.12,16.027,5.12c7.764,0,14.793-3.206,19.831-8.365  c5.038,5.159,12.067,8.365,19.831,8.365s14.793-3.206,19.831-8.365c5.038,5.159,12.067,8.365,19.831,8.365  c15.292,0,27.733-12.441,27.733-27.733v-34.956c0-4.364-3.537-7.902-7.902-7.902h-47.002c-4.365,0-7.902,3.538-7.902,7.902  c0,4.364,3.537,7.902,7.902,7.902h39.1v27.054c0,6.578-5.351,11.929-11.929,11.929c-6.578,0-11.929-5.351-11.929-11.929  c0-4.364-3.537-7.902-7.902-7.902c-4.365,0-7.902,3.538-7.902,7.902c0,6.578-5.351,11.929-11.929,11.929  s-11.929-5.351-11.929-11.929c0-4.364-3.537-7.902-7.902-7.902c-4.365,0-7.902,3.538-7.902,7.902  c0,6.578-5.351,11.929-11.929,11.929s-11.929-5.351-11.929-11.929c0-4.364-3.537-7.902-7.902-7.902  c-4.365,0-7.902,3.538-7.902,7.902c0,2.71-0.919,5.203-2.447,7.209c-0.006,0.008-0.015,0.015-0.021,0.022  c-2.226,2.907-5.795,4.698-9.462,4.698c-3.631,0-7.297-1.76-9.476-4.713c-1.532-2.006-2.453-4.503-2.453-7.217  c0-4.364-3.537-7.902-7.902-7.902s-7.902,3.538-7.902,7.902c0,6.578-5.351,11.929-11.929,11.929s-11.929-5.351-11.929-11.929  c0-4.364-3.537-7.902-7.902-7.902s-7.902,3.538-7.902,7.902c0,6.578-5.351,11.929-11.929,11.929s-11.929-5.351-11.929-11.929  c0-4.364-3.537-7.902-7.902-7.902s-7.902,3.538-7.902,7.902c0,6.578-5.351,11.929-11.929,11.929  c-6.578,0-11.929-5.351-11.929-11.929v-27.054H316.21V204.375z M248.167,258.045c2.533,0.743,5.188,1.116,7.834,1.117  c2.642,0,5.296-0.377,7.833-1.117v82.001h-15.665v-82.001H248.167z M240.26,355.852c0.002,0,0.003,0,0.003,0h31.472h0.005h17.563  c12.647,0,23.356,8.454,26.771,20.008H195.926c3.416-11.554,14.125-20.008,26.771-20.008H240.26z"/>
<path d="M42.221,321.292v62.47c0,4.364,3.537,7.902,7.902,7.902h28.329c4.365,0,7.902-3.538,7.902-7.902v-55.425h33.238v55.425  c0,4.364,3.537,7.902,7.902,7.902h28.328c4.365,0,7.902-3.538,7.902-7.902v-55.425h2.634c4.365,0,7.902-3.538,7.902-7.902v-40.449  c0-4.364-3.537-7.902-7.902-7.902H89.005l-15.754-71.719c-0.937-4.262-5.145-6.961-9.414-6.023  c-4.262,0.937-6.958,5.151-6.023,9.414l17.117,77.926c0.797,3.624,4.007,6.207,7.718,6.207h75.805v24.644H56.477L17.728,136.141  h25.231l7.911,36.005c0.937,4.262,5.148,6.96,9.414,6.023c4.263-0.937,6.958-5.151,6.023-9.414l-9.274-42.212  c-0.797-3.624-4.007-6.207-7.718-6.207H7.902c-2.393,0-4.658,1.085-6.158,2.95c-1.5,1.866-2.074,4.309-1.559,6.648L42.221,321.292z   M135.396,328.338h12.523v47.523h-12.523V328.338z M58.025,328.338H70.55v47.523H58.025V328.338z"/>
<path d="M471.578,276.276c4.263,0.937,8.477-1.76,9.414-6.023l30.825-140.319c0.513-2.338-0.06-4.782-1.559-6.648  c-1.5-1.865-3.765-2.95-6.158-2.95h-41.414c-3.711,0-6.921,2.582-7.718,6.207l-31.972,145.54h-77.352  c-4.365,0-7.902,3.538-7.902,7.902v40.449c0,4.364,3.537,7.902,7.902,7.902h2.634v55.425c0,4.364,3.537,7.902,7.902,7.902h28.328  c4.365,0,7.902-3.538,7.902-7.902v-55.425h33.238v55.425c0,4.364,3.537,7.902,7.902,7.902h28.329c4.365,0,7.902-3.538,7.902-7.902  v-62.468l4.317-19.652c0.937-4.262-1.761-8.476-6.024-9.413c-4.269-0.938-8.476,1.761-9.413,6.022l-3.138,14.284H353.546v-24.644  h75.804c3.711,0,6.921-2.582,7.718-6.207l31.972-145.541h25.232l-28.716,130.721C464.62,271.125,467.315,275.34,471.578,276.276z   M441.451,328.338h12.524v47.523h-12.524V328.338z M364.082,328.338h12.523v47.523h-12.523V328.338z"/>
<g>
</g>
<g>
</g>
<g>
</g>
<g>
</g>
<g>
</g>
<g>
</g>
<g>
</g>
<g>
</g>
<g>
</g>
<g>
</g>
<g>
</g>
<g>
</g>
<g>
</g>
<g>
</g>
<g>
</g>
</svg>
